<?xml version="1.0" standalone="no"?>
<!DOCTYPE svg PUBLIC "-//W3C//DTD SVG 20010904//EN"
 "http://www.w3.org/TR/2001/REC-SVG-20010904/DTD/svg10.dtd">
<svg version="1.0" xmlns="http://www.w3.org/2000/svg"
 width="365.000000pt" height="365.000000pt" viewBox="0 0 365.000000 365.000000"
 preserveAspectRatio="xMidYMid meet">

<g transform="translate(0.000000,365.000000) scale(0.100000,-0.100000)"
fill="#000000" stroke="none">
<path d="M1573 3553 c-27 -10 -9 -45 103 -191 l115 -152 -24 -113 -23 -112
-32 1 c-18 0 -70 1 -116 2 l-85 2 -122 160 c-67 88 -127 160 -134 160 -6 0
-37 -26 -67 -58 -46 -48 -58 -68 -68 -114 -50 -224 79 -453 293 -520 79 -24
204 -24 277 2 30 10 57 15 60 11 15 -21 722 -946 767 -1003 30 -38 60 -68 67
-68 16 0 288 210 293 225 1 6 -79 116 -178 245 -99 129 -208 271 -241 315 -34
44 -138 180 -232 303 -94 123 -177 232 -184 242 -12 16 -11 27 6 73 61 162 26
332 -94 458 -64 67 -148 113 -233 129 -56 10 -127 12 -148 3z m229 -86 c73
-33 146 -105 184 -182 26 -55 29 -69 29 -165 0 -99 -2 -110 -32 -171 -40 -82
-102 -140 -191 -182 -59 -28 -77 -31 -152 -31 -113 1 -181 27 -260 101 -70 64
-116 150 -126 235 -6 59 2 138 15 138 5 0 54 -60 109 -133 l102 -134 97 -6
c138 -10 201 -9 208 3 3 5 19 71 35 147 l30 137 -88 113 c-48 63 -96 126 -106
140 l-20 26 55 -5 c30 -2 80 -16 111 -31z m-616 -363 c-4 -9 -9 -15 -11 -12
-3 3 -3 13 1 22 4 9 9 15 11 12 3 -3 3 -13 -1 -22z m-1 -34 c-3 -5 -1 -18 4
-29 8 -14 8 -21 -2 -24 -9 -4 -9 -8 -1 -14 6 -4 19 -23 29 -42 14 -28 15 -38
5 -59 -9 -21 -13 -23 -21 -11 -5 7 -9 19 -9 24 0 6 5 3 10 -5 5 -8 10 -10 10
-5 0 13 -20 43 -20 30 0 -5 -4 -4 -9 3 -13 21 -14 142 -1 142 6 0 8 -4 5 -10z
m58 -196 c-3 -8 -1 -14 3 -12 17 6 93 -82 87 -99 -4 -11 -2 -14 5 -9 7 4 12 2
12 -3 0 -6 5 -11 11 -11 5 0 7 5 3 12 -4 7 -3 8 5 4 6 -4 8 -12 5 -18 -5 -7
-1 -9 9 -5 9 3 18 0 21 -9 3 -9 10 -13 15 -10 4 3 16 -3 26 -14 10 -11 23 -20
29 -20 6 0 4 5 -4 10 -22 14 -7 12 34 -5 20 -9 47 -13 60 -9 13 3 26 2 29 -3
3 -5 -17 -9 -44 -9 -27 0 -49 4 -49 8 0 4 -5 8 -11 8 -5 0 -8 -4 -5 -9 7 -11
-34 -2 -52 12 -7 5 -15 7 -19 4 -9 -10 -59 20 -82 49 -11 14 -25 23 -30 19 -7
-4 -8 0 -5 10 4 9 13 14 20 11 19 -7 18 -2 -5 18 -18 16 -19 16 -17 0 0 -9 -5
-19 -12 -21 -7 -3 -10 1 -6 10 3 8 0 18 -7 23 -8 4 -10 3 -5 -4 4 -7 3 -12 -2
-12 -5 0 -14 12 -21 27 -11 24 -10 25 4 13 13 -11 15 -10 10 3 -4 8 -15 17
-26 20 -17 5 -19 9 -9 27 12 23 33 18 23 -6z m882 -181 c71 -93 152 -197 180
-233 29 -36 72 -93 96 -127 24 -34 107 -144 185 -245 77 -101 143 -188 147
-194 4 -8 -10 -8 -49 -1 -36 6 -59 6 -65 0 -15 -15 -24 -119 -10 -127 6 -4 34
-10 62 -13 57 -7 68 1 70 52 0 17 4 38 8 48 6 16 11 13 34 -20 l27 -38 -32
-27 c-18 -15 -51 -41 -74 -57 l-40 -29 -44 56 c-198 256 -470 614 -470 619 0
3 -19 29 -43 57 -62 74 -237 304 -237 311 0 4 28 35 63 70 34 34 62 63 63 64
1 0 59 -74 129 -166z m-295 -40 c0 -9 3 -13 6 -10 9 9 44 -37 44 -58 0 -9 4
-14 9 -11 5 3 20 -9 35 -28 23 -30 24 -35 9 -41 -10 -3 -14 -3 -10 1 4 4 -2
13 -13 21 -12 8 -17 20 -13 30 4 10 2 14 -4 10 -6 -4 -16 0 -23 8 -7 8 -9 15
-4 15 4 0 -1 7 -12 15 -10 8 -15 15 -10 15 5 0 -3 9 -18 21 -14 11 -24 25 -20
30 8 13 24 1 24 -18z m144 -187 c-3 -7 8 -24 24 -37 15 -14 31 -33 36 -44 9
-25 -59 51 -80 88 -15 27 -15 28 5 18 11 -6 18 -17 15 -25z m200 -272 c4 -9 9
-14 13 -11 6 7 36 -29 46 -55 3 -10 2 -18 -3 -18 -6 0 -11 5 -11 10 -1 6 -2
16 -3 23 -1 6 -8 11 -16 9 -8 -2 -12 -1 -8 3 4 4 -5 18 -20 31 -15 13 -22 24
-16 24 7 0 15 -7 18 -16z m85 -91 c-3 -20 2 -34 10 -29 5 3 14 -8 21 -24 7
-16 15 -28 19 -25 4 2 14 -5 22 -17 8 -11 26 -34 41 -51 17 -21 24 -35 17 -42
-6 -6 -15 0 -26 15 -10 14 -16 26 -15 28 3 3 -14 24 -82 99 -15 17 -25 36 -22
42 8 13 17 15 15 4z m151 -203 c0 -5 -5 -10 -11 -10 -5 0 -7 5 -4 10 3 6 8 10
11 10 2 0 4 -4 4 -10z m36 -52 c0 -4 9 -15 22 -23 12 -9 22 -21 22 -27 0 -6 8
-17 18 -24 9 -7 18 -17 18 -23 1 -6 2 -16 3 -22 0 -5 5 -8 10 -5 11 7 33 -18
24 -27 -3 -4 -1 -7 6 -7 7 0 10 -4 6 -9 -3 -5 5 -17 17 -25 12 -9 17 -16 11
-16 -18 0 -62 50 -88 99 -8 17 -21 34 -29 38 -8 4 -16 15 -18 22 -2 8 -19 30
-38 49 -19 19 -29 31 -22 28 7 -4 12 -2 12 6 0 7 6 4 14 -7 7 -11 13 -23 12
-27z m244 -23 c0 -8 -9 -15 -20 -15 -20 0 -26 11 -13 23 12 13 33 7 33 -8z"/>
<path d="M1184 2969 c0 -10 4 -19 8 -19 4 0 8 6 8 14 0 8 -4 17 -8 20 -4 2 -8
-4 -8 -15z"/>
<path d="M1370 2715 c0 -2 10 -10 23 -16 20 -11 21 -11 8 4 -13 16 -31 23 -31
12z"/>
<path d="M1615 2429 c-107 -80 -155 -122 -155 -137 0 -7 27 -49 60 -92 l60
-79 -88 -68 c-48 -37 -225 -173 -393 -301 l-306 -233 -21 -92 c-14 -64 -17
-96 -10 -104 7 -9 42 -13 106 -13 l96 0 116 88 c63 48 236 180 383 293 147
112 272 205 277 207 4 2 36 -33 70 -77 33 -45 67 -81 74 -81 17 0 225 157 232
175 3 7 -59 97 -138 200 -79 104 -172 226 -208 273 -36 47 -70 87 -76 89 -6 2
-41 -20 -79 -48z m120 -84 c28 -36 68 -90 90 -119 22 -29 82 -108 133 -175
l93 -122 -23 -20 c-50 -42 -50 -42 -108 33 -30 39 -73 94 -95 122 -51 66 -186
242 -204 268 -14 19 -12 23 20 49 18 16 36 29 39 29 3 0 28 -29 55 -65z m-99
-161 c-3 -8 -2 -12 4 -9 6 3 15 3 21 -1 8 -4 7 -9 -2 -15 -11 -7 -11 -9 2 -9
9 0 24 -9 34 -20 10 -11 13 -20 7 -20 -7 0 -12 -4 -12 -10 0 -5 5 -9 11 -7 6
1 14 -4 17 -12 9 -27 -19 -5 -62 48 -42 51 -49 71 -24 71 5 0 7 -7 4 -16z
m130 -152 c-3 -2 6 -20 19 -40 13 -19 21 -40 18 -45 -3 -6 -15 9 -26 31 -11
25 -24 39 -31 35 -6 -3 -8 -3 -4 2 4 4 -1 16 -13 26 -14 12 -16 18 -7 22 13 5
52 -23 44 -31z m-154 19 c-8 -4 -14 -12 -14 -16 0 -4 6 -12 14 -17 9 -7 8 -8
-5 -4 -10 3 -23 6 -28 6 -5 0 -1 9 8 20 10 11 22 20 28 20 5 0 4 -4 -3 -9z
m38 -41 c12 -16 19 -30 16 -30 -2 0 -14 14 -26 30 -12 17 -19 30 -16 30 2 0
14 -13 26 -30z m-70 -69 l71 -38 -26 -21 -27 -21 -81 40 -81 41 25 19 c33 25
38 25 119 -20z m250 8 c0 -5 7 -17 15 -26 60 -69 75 -92 65 -98 -6 -4 -14 -4
-17 -1 -4 3 -1 6 6 6 7 0 9 5 6 10 -4 6 -11 8 -16 4 -16 -9 -40 17 -34 36 4
13 1 17 -12 16 -12 -1 -17 5 -15 17 2 9 -2 17 -7 17 -5 0 -9 9 -8 19 1 19 17
19 17 0z m-416 -89 c4 0 4 5 1 10 -3 6 10 0 30 -11 20 -12 33 -24 30 -27 -3
-3 -11 0 -17 6 -15 15 -55 16 -60 1 -3 -9 -10 -8 -25 2 -17 10 -20 17 -12 32
10 17 12 17 28 3 10 -9 21 -16 25 -16z m42 -31 c3 -6 14 -9 23 -6 11 2 18 -1
18 -9 0 -8 -4 -14 -9 -14 -5 0 -6 -6 -3 -12 4 -7 0 -5 -8 4 -8 10 -17 15 -20
11 -4 -3 -7 1 -7 9 0 11 -6 14 -20 11 -11 -3 -20 0 -20 6 0 14 37 14 46 0z
m-105 -56 c38 -21 69 -41 69 -44 0 -4 -11 -14 -25 -23 -25 -16 -28 -16 -102
25 l-76 42 22 19 c13 10 28 18 33 18 6 0 41 -17 79 -37z m-171 -73 c0 -3 -5
-11 -12 -18 -7 -7 -8 -12 -2 -12 6 0 19 -7 30 -15 10 -9 -1 -6 -26 6 -56 27
-58 28 -40 39 15 9 50 9 50 0z m53 -33 c-4 -6 0 -8 11 -4 10 4 19 1 22 -8 3
-7 12 -11 20 -8 21 8 17 -5 -6 -17 -16 -8 -24 -6 -42 12 -13 13 -22 26 -21 29
1 4 -7 5 -17 2 -19 -5 -27 7 -14 20 10 9 54 -15 47 -26z m-120 -58 c89 -45 91
-48 62 -71 l-26 -20 -72 37 c-40 21 -74 39 -76 41 -6 5 30 44 41 44 5 0 37
-14 71 -31z m-177 -68 c-3 -5 8 -11 25 -15 17 -3 28 -10 25 -15 -3 -5 2 -7 13
-4 10 3 22 -1 26 -8 6 -8 4 -10 -6 -4 -11 7 -11 5 1 -9 8 -10 16 -13 18 -8 4
13 32 4 32 -11 0 -6 -3 -7 -6 -4 -4 3 -16 2 -27 -4 -15 -9 -18 -8 -12 2 6 9 2
11 -13 7 -11 -3 -30 1 -41 9 -12 8 -34 21 -49 29 -19 9 -22 14 -9 14 9 0 16 3
16 8 -2 12 1 22 7 22 3 0 3 -4 0 -9z m-31 -113 c36 -18 64 -37 62 -43 -2 -5
-36 -11 -77 -13 l-73 -3 7 32 c3 17 6 38 6 45 0 19 0 19 75 -18z"/>
<path d="M1670 2131 c0 -6 4 -13 10 -16 6 -3 7 1 4 9 -7 18 -14 21 -14 7z"/>
<path d="M1730 2056 c0 -2 8 -10 18 -17 15 -13 16 -12 3 4 -13 16 -21 21 -21
13z"/>
<path d="M1835 1910 c-3 -5 -1 -10 4 -10 6 0 11 5 11 10 0 6 -2 10 -4 10 -3 0
-8 -4 -11 -10z"/>
<path d="M1370 1865 c0 -8 4 -15 10 -15 5 0 7 7 4 15 -4 8 -8 15 -10 15 -2 0
-4 -7 -4 -15z"/>
<path d="M1140 1689 c0 -5 5 -7 10 -4 6 3 10 8 10 11 0 2 -4 4 -10 4 -5 0 -10
-5 -10 -11z"/>
<path d="M945 1510 c-3 -6 1 -7 9 -4 18 7 21 14 7 14 -6 0 -13 -4 -16 -10z"/>
<path d="M985 1480 c3 -5 8 -10 11 -10 2 0 4 5 4 10 0 6 -5 10 -11 10 -5 0 -7
-4 -4 -10z"/>
<path d="M422 1058 c-27 -27 -6 -68 35 -68 29 0 48 33 33 60 -12 22 -49 27
-68 8z"/>
<path d="M2800 1050 c-15 -28 4 -60 35 -60 31 0 50 32 35 60 -6 12 -21 20 -35
20 -14 0 -29 -8 -35 -20z"/>
<path d="M592 1052 c-9 -7 -12 -59 -10 -228 l3 -219 33 -3 32 -3 0 75 c0 41 4
77 9 81 5 3 34 -30 63 -72 49 -72 56 -78 92 -81 47 -4 47 -4 -23 102 -28 43
-51 82 -51 86 0 4 23 37 50 73 27 36 50 69 50 72 0 3 -18 5 -40 5 -36 0 -43
-5 -81 -55 -62 -82 -69 -76 -69 60 0 113 0 115 -22 115 -13 0 -29 -4 -36 -8z"/>
<path d="M1490 1042 c-50 -25 -76 -81 -61 -132 15 -52 47 -75 147 -105 84 -26
104 -42 104 -84 0 -30 -38 -51 -93 -51 -40 0 -53 5 -78 29 -18 18 -29 40 -29
56 0 26 -2 27 -32 21 -46 -9 -51 -19 -33 -62 34 -81 85 -114 177 -114 77 0
126 23 150 71 46 89 -1 156 -136 196 -82 24 -106 40 -106 70 0 35 26 52 79 53
38 0 49 -5 80 -38 33 -35 39 -37 69 -30 l33 9 -24 42 c-33 57 -87 87 -157 87
-33 0 -69 -7 -90 -18z"/>
<path d="M42 828 l3 -223 100 1 c123 1 158 15 186 80 16 36 18 50 9 82 -5 21
-18 46 -29 56 -18 16 -18 18 2 57 17 35 18 46 8 79 -6 21 -25 50 -42 64 -29
24 -37 26 -135 26 l-104 0 2 -222z m192 140 c36 -51 3 -98 -69 -98 l-45 0 0
60 0 60 49 0 c40 0 53 -4 65 -22z m11 -183 c28 -27 31 -45 14 -78 -17 -32 -28
-37 -86 -37 l-53 0 0 70 0 70 50 0 c41 0 56 -5 75 -25z"/>
<path d="M964 936 c-112 -49 -124 -251 -19 -316 63 -39 187 -17 223 40 9 15 7
21 -13 34 -23 15 -26 15 -49 -9 -50 -50 -144 -24 -149 40 l-2 30 118 3 117 3
0 31 c0 17 -9 51 -21 74 -34 71 -128 103 -205 70z m129 -73 c9 -9 17 -24 17
-35 0 -16 -9 -18 -80 -18 -44 0 -80 3 -80 8 0 15 33 54 54 62 26 11 65 4 89
-17z"/>
<path d="M1901 928 c-58 -30 -81 -74 -81 -153 0 -112 57 -175 157 -175 58 0
96 15 128 50 l20 22 -24 19 c-23 19 -23 19 -53 -6 -55 -46 -144 -19 -150 45
l-3 25 123 3 c136 3 131 -1 107 80 -29 97 -132 138 -224 90z m106 -48 c25 -9
53 -44 53 -65 0 -3 -36 -5 -80 -5 -50 0 -80 4 -80 11 0 21 22 50 43 59 29 12
29 12 64 0z"/>
<path d="M3034 936 c-41 -18 -71 -62 -85 -122 -16 -68 2 -127 51 -176 35 -35
42 -38 95 -38 66 0 110 22 138 69 17 29 17 30 -2 41 -31 16 -55 12 -66 -12
-23 -53 -107 -48 -131 7 -42 101 15 208 93 176 17 -7 36 -24 42 -38 10 -22 16
-24 43 -19 17 3 34 8 36 11 8 8 -33 68 -60 88 -34 25 -113 32 -154 13z"/>
<path d="M3385 936 c-87 -40 -121 -153 -75 -253 25 -56 70 -83 138 -83 58 0
95 15 130 53 l23 24 -26 17 c-25 16 -27 16 -56 -8 -58 -49 -149 -19 -149 49
l0 25 121 0 122 0 -7 48 c-11 80 -64 132 -143 139 -28 2 -61 -2 -78 -11z m128
-78 c34 -40 23 -48 -63 -48 -44 0 -80 4 -80 9 0 24 16 44 44 57 38 17 75 10
99 -18z"/>
<path d="M420 770 l0 -170 35 0 35 0 0 170 0 170 -35 0 -35 0 0 -170z"/>
<path d="M2210 770 l0 -170 35 0 35 0 0 106 c0 136 19 173 88 174 29 0 32 3
32 30 0 27 -3 30 -32 30 -18 0 -44 -9 -58 -20 -32 -25 -40 -25 -40 0 0 16 -7
20 -30 20 l-30 0 0 -170z"/>
<path d="M2430 936 c0 -5 65 -186 100 -279 21 -57 23 -58 57 -55 30 3 37 8 49
38 49 131 104 283 104 291 0 5 -15 9 -34 9 l-34 0 -43 -117 c-23 -64 -44 -113
-46 -108 -2 6 -21 57 -42 115 l-38 105 -37 3 c-20 2 -36 1 -36 -2z"/>
<path d="M2800 770 l0 -170 35 0 35 0 0 170 0 170 -35 0 -35 0 0 -170z"/>
<path d="M912 463 c2 -10 13 -19 26 -21 17 -3 22 2 22 17 0 16 -6 21 -26 21
-19 0 -25 -5 -22 -17z"/>
<path d="M694 448 c-23 -11 -44 -48 -44 -77 0 -32 32 -60 95 -84 71 -27 92
-61 60 -97 -26 -29 -62 -25 -96 11 -17 19 -35 29 -44 25 -23 -9 1 -52 40 -71
52 -24 92 -19 126 14 53 54 27 117 -62 146 -29 10 -56 27 -66 41 -14 22 -14
26 1 49 10 16 26 25 42 25 14 0 36 -11 50 -25 14 -14 31 -25 39 -25 25 0 17
27 -16 54 -33 28 -85 34 -125 14z"/>
<path d="M2021 447 c-42 -25 -69 -97 -35 -97 8 0 20 14 26 30 17 50 70 66 101
32 39 -43 2 -122 -93 -196 -33 -26 -59 -53 -57 -59 2 -7 38 -10 108 -8 57 1
106 4 108 6 14 14 -21 25 -80 25 l-71 0 55 50 c83 76 109 151 69 200 -22 27
-96 37 -131 17z"/>
<path d="M2283 450 c-68 -28 -80 -222 -17 -281 50 -47 141 -25 166 41 15 39
12 152 -6 193 -21 51 -82 71 -143 47z m103 -51 c14 -16 18 -36 19 -93 0 -91
-19 -126 -69 -126 -54 0 -71 28 -71 120 0 63 4 82 19 99 25 28 77 28 102 0z"/>
<path d="M2554 450 c-28 -11 -54 -48 -54 -78 0 -31 34 -26 38 6 2 12 14 30 28
38 49 33 105 -11 90 -71 -8 -31 -96 -128 -138 -153 -48 -28 -35 -42 40 -43 37
-1 85 -2 107 -2 30 -2 40 2 40 13 0 12 -16 16 -73 18 l-73 3 52 47 c53 47 88
108 89 150 0 13 -13 37 -29 53 -31 30 -73 37 -117 19z"/>
<path d="M2769 453 c0 -5 -1 -44 -1 -88 0 -88 7 -98 48 -66 53 42 124 14 124
-48 0 -69 -82 -101 -125 -48 -20 26 -55 37 -55 17 0 -5 13 -24 29 -42 26 -29
36 -33 79 -33 39 0 56 5 76 24 48 45 43 133 -10 168 -24 15 -80 14 -117 -2
-16 -7 -18 -3 -15 41 l3 49 78 3 c59 2 77 6 77 17 0 12 -18 15 -95 15 -52 0
-95 -3 -96 -7z"/>
<path d="M920 265 c0 -104 2 -125 15 -125 8 0 15 5 15 10 1 6 1 57 1 115 0 58
0 110 -1 115 0 6 -7 10 -15 10 -13 0 -15 -21 -15 -125z"/>
<path d="M1027 383 c-4 -3 -7 -57 -7 -120 0 -104 1 -113 19 -113 17 0 19 9 22
86 4 76 7 88 28 105 30 24 62 24 92 0 21 -17 24 -28 26 -103 1 -45 2 -86 3
-90 0 -4 6 -5 14 -2 35 13 31 179 -5 215 -38 38 -102 37 -139 -3 l-20 -22 0
27 c0 25 -18 36 -33 20z"/>
<path d="M1358 374 c-80 -43 -76 -185 7 -220 44 -18 69 -18 110 1 26 13 55 49
55 70 0 15 -35 1 -52 -20 -27 -34 -99 -36 -122 -3 -19 27 -20 96 -3 119 34 44
92 46 126 3 10 -13 26 -24 35 -24 19 0 19 2 5 34 -23 49 -107 70 -161 40z"/>
<path d="M1633 371 c-42 -26 -53 -49 -53 -109 0 -82 62 -132 144 -116 52 9
110 84 65 84 -6 0 -20 -12 -33 -27 -42 -49 -136 -26 -136 33 0 17 7 24 28 27
l27 4 -27 2 c-23 1 -28 6 -28 25 0 29 42 66 75 66 32 0 75 -37 75 -65 0 -18
-6 -25 -27 -28 -17 -2 -10 -5 20 -6 46 -1 47 0 47 29 0 76 -107 125 -177 81z"/>
</g>
</svg>
